<svg width="217" height="56" viewBox="0 0 217 56" fill="none" xmlns="http://www.w3.org/2000/svg">
<path d="M49.9997 32.4617L49.0767 44.5363C47.7284 46.7583 46.0269 48.7457 44.0391 50.4202C41.9165 52.1937 39.4944 53.574 36.8868 54.4962C33.8579 55.5427 30.6691 56.0503 27.465 55.9961C22.5 56.0383 17.6052 54.8225 13.237 52.462C9.13572 50.2086 5.76062 46.8343 3.50633 42.7335C1.17408 38.5543 0.0079574 33.6191 0.0079574 27.9279C-0.109835 22.8285 1.08183 17.7841 3.46911 13.2765C5.71449 9.15904 9.0902 5.76938 13.1983 3.50705C17.7237 1.08991 22.7975 -0.115266 27.9265 0.00868092C31.4063 -0.0379867 34.8714 0.46852 38.1923 1.50926C41.0007 2.39401 43.679 3.64829 46.1567 5.23912L47.6923 16.0863H47C46.095 11.9017 43.6172 8.22449 40.0785 5.81449C36.4743 3.44747 32.2375 2.22779 27.9265 2.31612C23.7892 2.21271 19.7121 3.32248 16.198 5.50857C12.8408 7.69346 10.1736 10.7872 8.50677 14.4294C6.60444 18.6413 5.67145 23.2264 5.77655 27.8468C5.67356 32.4804 6.60632 37.0786 8.50677 41.3059C10.1588 44.955 12.7954 48.0714 16.1206 50.3049C19.4999 52.4961 23.4375 53.6706 27.465 53.6886C30.9415 53.722 34.3867 53.0278 37.579 51.6506C40.769 50.2187 43.479 47.8981 45.3848 44.9665C47.4873 41.8631 48.8204 37.6949 49.3841 32.4617H49.9997Z" fill="#009EDD"/>
<path d="M21.2491 13.2102H21.089C21.0943 12.7652 21.0068 12.3241 20.8319 11.9148C20.6571 11.5056 20.3989 11.1373 20.0738 10.8335C19.7598 10.5161 19.3853 10.2651 18.9724 10.0955C18.5595 9.92577 18.1167 9.84087 17.6703 9.84581H17.0294L16.9788 9.31286H21.252L21.2491 13.2102ZM21.2491 42.7997V46.6986H16.9788L17.0324 46.1641H17.6733C18.1197 46.1692 18.5625 46.0844 18.9755 45.9147C19.3884 45.745 19.7629 45.4939 20.0767 45.1764C20.4019 44.8726 20.6601 44.5043 20.8349 44.0951C21.0097 43.6859 21.0973 43.2447 21.092 42.7997H21.2491ZM24.5606 46.6986H21.089V9.31286H24.5606V46.6986ZM27.6049 9.31286C29.7682 9.25269 31.921 9.63437 33.9318 10.4346C35.518 11.0698 36.8828 12.1568 37.8567 13.5608C38.7622 14.9484 39.2276 16.5771 39.192 18.2337C39.2233 19.5902 38.9317 20.9347 38.3412 22.1564C37.8222 23.2153 37.0745 24.1458 36.1521 24.8806C35.3132 25.5485 34.3526 26.0472 33.3237 26.3492C35.0749 26.5827 36.7472 27.223 38.2065 28.219C39.5411 29.139 40.6245 30.3782 41.358 31.8238C42.1015 33.3253 42.4768 34.9822 42.4529 36.6575C42.4907 38.5125 41.9896 40.3387 41.0104 41.9147C39.9802 43.4875 38.5024 44.7156 36.7677 45.4406C34.6289 46.3293 32.3267 46.7569 30.0114 46.6956H24.0798C24.115 46.054 24.1329 45.4131 24.1334 44.773H29.7948C31.4177 44.8229 33.0291 44.484 34.4945 43.7845C35.7553 43.1465 36.7832 42.1277 37.4324 40.8727C38.1414 39.4477 38.4897 37.8704 38.4469 36.2794C38.5199 34.5858 38.1226 32.905 37.2991 31.4233C36.586 30.2291 35.5615 29.2514 34.3352 28.5949C33.1064 27.9486 31.7805 27.5069 30.4096 27.2871C29.077 27.0618 27.7283 26.9455 26.3768 26.9395V26.4586C27.291 26.4501 28.2026 26.3607 29.101 26.1914C30.1173 26.0066 31.0932 25.6451 31.9846 25.1233C32.9486 24.5505 33.7417 23.7301 34.2816 22.7474C34.9396 21.4702 35.2526 20.0434 35.1897 18.6081C35.2295 17.1863 34.9272 15.7757 34.3084 14.4949C33.7371 13.3727 32.8194 12.4644 31.6913 11.9046C30.3474 11.2772 28.8745 10.9752 27.3921 11.0233H22.4794C22.4462 10.8689 22.4017 10.7172 22.3462 10.5693C22.2569 10.3018 22.1234 9.88352 21.9458 9.31435L27.6049 9.31286Z" fill="#009EDD"/>
<path d="M32.3627 29.4843L32.004 34.1804C31.4797 35.0443 30.8179 35.8169 30.0449 36.4677C29.2194 37.1576 28.2775 37.6945 27.2633 38.0531C26.0853 38.4602 24.8451 38.6577 23.5989 38.6367C21.6681 38.652 19.7649 38.1786 18.0663 37.2604C16.4714 36.3842 15.1591 35.0718 14.2828 33.477C13.3403 31.7073 12.8715 29.7239 12.9222 27.7195C12.8763 25.7365 13.3393 23.7748 14.2672 22.0216C15.1411 20.4215 16.454 19.1045 18.0514 18.2255C19.8122 17.2844 21.7868 16.8154 23.7828 16.8642C26.2942 16.8299 28.76 17.5376 30.8711 18.8984L31.4665 23.1158H31.1956C30.8431 21.4891 29.8797 20.0596 28.5041 19.1225C27.1024 18.2021 25.4548 17.7278 23.7783 17.7618C22.1932 17.7047 20.6272 18.1226 19.2814 18.962C17.9356 19.8015 16.8714 21.024 16.2255 22.4727C15.4861 24.1113 15.1234 25.8948 15.1641 27.692C15.1244 29.4939 15.487 31.282 16.2255 32.9262C16.8684 34.3447 17.8937 35.5561 19.1865 36.4245C20.5006 37.2768 22.0319 37.7335 23.5982 37.7405C24.9504 37.7534 26.2903 37.4834 27.532 36.9478C28.7734 36.3896 29.8274 35.4851 30.5674 34.3426C31.4727 32.8735 32.0066 31.2061 32.123 29.4843H32.3627Z" fill="#009EDD"/>
<path d="M74.2703 19.0369L74.0306 22.0187C73.6409 22.6116 73.1381 23.1218 72.5508 23.52C71.9182 23.9514 71.2203 24.2781 70.4838 24.4876C69.6915 24.716 68.8706 24.8298 68.0461 24.8256C66.7244 24.8438 65.4166 24.5532 64.2269 23.977C63.1811 23.459 62.3134 22.6408 61.7349 21.6271C61.1303 20.5132 60.8302 19.2595 60.8648 17.9926C60.8285 16.7186 61.1287 15.4575 61.7349 14.3364C62.3134 13.3227 63.1811 12.5046 64.2269 11.9865C65.4161 11.411 66.7254 11.1275 68.0461 11.1596C68.9639 11.1619 69.8779 11.2789 70.7667 11.5079C71.6039 11.7081 72.4044 12.0386 73.1389 12.4875L73.6175 15.5556H73.4217C73.3145 14.9708 73.0882 14.4143 72.7568 13.9207C72.4254 13.427 71.996 13.0068 71.4954 12.6862C70.4404 12.0826 69.2395 11.7816 68.0245 11.8161C66.9845 11.7877 65.9567 12.0463 65.0539 12.5634C64.2146 13.0702 63.5419 13.8115 63.1186 14.6959C62.638 15.7269 62.4033 16.8554 62.4331 17.9926C62.4057 19.1154 62.6399 20.2293 63.1171 21.246C63.5417 22.1324 64.2179 22.8741 65.0613 23.3786C65.9699 23.8965 67.0004 24.1624 68.0461 24.149C69.0544 24.1638 70.0559 23.9828 70.9952 23.616C71.8533 23.2758 72.5969 22.6982 73.1389 21.9509C73.7258 21.0896 74.0507 20.0767 74.0745 19.0346L74.2703 19.0369ZM89.6333 11.1596C90.6087 11.1526 91.5777 11.3184 92.4953 11.6493C93.3623 11.9606 94.1607 12.4374 94.8459 13.0532C95.5168 13.6573 96.0543 14.3947 96.4239 15.2184C96.8093 16.0921 97.0022 17.0385 96.9896 17.9933C97.0022 18.9481 96.8093 19.8945 96.4239 20.7682C96.0543 21.5919 95.5168 22.3294 94.8459 22.9335C94.1605 23.5487 93.3622 24.0249 92.4953 24.3358C91.5777 24.6667 90.6087 24.8325 89.6333 24.8256C88.6615 24.8331 87.6961 24.6672 86.7825 24.3358C85.92 24.0228 85.126 23.5464 84.4438 22.9327C83.7729 22.3286 83.2354 21.5911 82.8658 20.7674C82.4804 19.8938 82.2875 18.9474 82.3001 17.9926C82.2875 17.0377 82.4804 16.0914 82.8658 15.2177C83.2354 14.394 83.7729 13.6565 84.4438 13.0524C85.1261 12.4384 85.9204 11.9617 86.7833 11.6486C87.6967 11.3175 88.6618 11.1519 89.6333 11.1596ZM89.6333 24.1728C90.6591 24.1859 91.6684 23.9148 92.5496 23.3897C93.4227 22.8645 94.1371 22.1123 94.6166 21.2133C95.1397 20.2217 95.4017 19.1134 95.3781 17.9926C95.4043 16.8679 95.1422 15.7553 94.6166 14.7607C94.1346 13.8664 93.4206 13.1184 92.5496 12.5954C91.6685 12.07 90.6591 11.7988 89.6333 11.8116C88.6148 11.8008 87.6132 12.0721 86.7393 12.5954C85.8684 13.1184 85.1544 13.8664 84.6723 14.7607C84.1468 15.7553 83.8847 16.8679 83.9109 17.9926C83.8873 19.1134 84.1493 20.2217 84.6723 21.2133C85.1519 22.1123 85.8662 22.8645 86.7393 23.3897C87.6133 23.9128 88.6149 24.1838 89.6333 24.1728ZM106.76 11.464V24.5211H105.367V11.464H106.76ZM112.614 23.8468L112.571 24.5211H106.717V23.8468H112.614ZM113.832 21.4098L112.635 24.5211H109.328L110.068 23.8468C110.668 23.8707 111.266 23.763 111.82 23.5312C112.246 23.3343 112.615 23.0351 112.897 22.6603C113.183 22.2719 113.424 21.8521 113.615 21.4091L113.832 21.4098ZM105.411 23.1285L105.694 24.5211H103.8V24.3038H104.105C104.269 24.3097 104.434 24.2819 104.587 24.222C104.741 24.1621 104.881 24.0714 104.998 23.9554C105.224 23.7383 105.358 23.4419 105.37 23.1285H105.411ZM106.695 12.8567V11.464H108.307V11.6813H108.046C107.713 11.6756 107.391 11.7961 107.143 12.0185C107.021 12.1212 106.924 12.2497 106.858 12.3947C106.792 12.5396 106.759 12.6974 106.762 12.8567H106.695ZM105.411 12.8567H105.367C105.363 12.6976 105.326 12.5411 105.258 12.3969C105.191 12.2527 105.095 12.1239 104.976 12.0185C104.727 11.7932 104.4 11.6724 104.064 11.6813H103.803V11.464H105.413L105.411 12.8567ZM127.695 11.1596C128.67 11.1526 129.639 11.3184 130.557 11.6493C131.424 11.9606 132.222 12.4374 132.907 13.0532C133.578 13.6573 134.116 14.3947 134.485 15.2184C134.871 16.0921 135.064 17.0385 135.051 17.9933C135.064 18.9481 134.871 19.8945 134.485 20.7682C134.116 21.5919 133.578 22.3294 132.907 22.9335C132.222 23.5487 131.424 24.0249 130.557 24.3358C129.639 24.6667 128.67 24.8325 127.695 24.8256C126.723 24.8331 125.758 24.6672 124.844 24.3358C123.981 24.0226 123.187 23.546 122.505 22.932C121.834 22.3279 121.296 21.5904 120.927 20.7667C120.541 19.893 120.348 18.9466 120.361 17.9918C120.348 17.037 120.541 16.0906 120.927 15.2169C121.296 14.3932 121.834 13.6558 122.505 13.0517C123.187 12.4377 123.981 11.961 124.844 11.6479C125.758 11.3169 126.723 11.1515 127.695 11.1596ZM127.695 24.1728C128.721 24.1859 129.73 23.9148 130.611 23.3897C131.484 22.8645 132.199 22.1123 132.678 21.2133C133.201 20.2217 133.463 19.1134 133.44 17.9926C133.466 16.8679 133.204 15.7553 132.678 14.7607C132.196 13.8664 131.482 13.1184 130.611 12.5954C129.73 12.07 128.721 11.7988 127.695 11.8116C126.676 11.8008 125.675 12.0721 124.801 12.5954C123.93 13.1184 123.216 13.8664 122.734 14.7607C122.208 15.7553 121.946 16.8679 121.972 17.9926C121.949 19.1134 122.211 20.2217 122.734 21.2133C123.213 22.1123 123.928 22.8645 124.801 23.3897C125.675 23.9128 126.676 24.1838 127.695 24.1728ZM144.538 11.464H147.346C147.967 11.456 148.586 11.5367 149.185 11.7037C149.689 11.8437 150.162 12.0803 150.577 12.4004C150.954 12.6957 151.256 13.076 151.459 13.5102C151.668 13.975 151.772 14.4803 151.763 14.9899C151.767 15.5837 151.617 16.1684 151.328 16.687C151.038 17.2087 150.623 17.65 150.12 17.971C149.592 18.3093 148.992 18.5182 148.368 18.5806C148.697 18.7449 148.99 18.9743 149.228 19.255C149.531 19.5755 149.811 19.9175 150.064 20.2784L150.347 20.6595C150.536 20.9136 150.779 21.2255 151.076 21.5951C151.373 21.9648 151.667 22.3167 151.957 22.6506C152.262 22.9841 152.541 23.2741 152.795 23.5207C153.036 23.7585 153.316 23.9535 153.622 24.0976C153.948 24.2413 154.301 24.3119 154.656 24.3045V24.5211H153.982C153.312 24.5421 152.644 24.4389 152.012 24.2167C151.552 24.0467 151.128 23.792 150.761 23.4657C150.468 23.1959 150.192 22.9088 149.934 22.6059C149.876 22.5335 149.742 22.3484 149.531 22.0507L148.846 21.083C148.598 20.7357 148.373 20.4201 148.172 20.1362C147.97 19.8524 147.846 19.682 147.799 19.6249C147.509 19.2475 147.173 18.9077 146.798 18.6133C146.463 18.331 146.04 18.1733 145.601 18.1667V17.9494L145.95 17.9606C146.182 17.968 146.48 17.9643 146.843 17.9494C147.249 17.935 147.655 17.9022 148.061 17.8511C148.476 17.7967 148.87 17.6354 149.204 17.383C149.611 17.0445 149.904 16.5885 150.042 16.0774C150.106 15.894 150.149 15.7044 150.172 15.5117C150.201 15.2881 150.209 15.0623 150.194 14.8373C150.186 14.4635 150.109 14.0944 149.965 13.7491C149.831 13.4346 149.631 13.1527 149.378 12.9222C149.115 12.6843 148.808 12.4996 148.475 12.378C148.098 12.2421 147.701 12.1686 147.3 12.1607C146.618 12.1319 146.023 12.1247 145.514 12.1391C145.26 12.1584 145.006 12.1584 144.752 12.1391C144.739 12.0761 144.72 12.0141 144.698 11.9538L144.589 11.627L144.538 11.464ZM144.8 11.464V24.5211H143.407V11.464H144.8ZM143.473 23.1285L143.733 24.5211H141.883V24.3038H142.188C142.349 24.3082 142.509 24.2795 142.659 24.2196C142.809 24.1597 142.944 24.0698 143.058 23.9554C143.284 23.7383 143.418 23.4419 143.43 23.1285H143.473ZM143.473 12.8351H143.429C143.426 12.6793 143.392 12.5257 143.328 12.3836C143.264 12.2415 143.172 12.1138 143.057 12.0081C142.821 11.789 142.509 11.6716 142.187 11.6813H141.883V11.464H143.732L143.473 12.8351ZM144.738 23.1285H144.803C144.816 23.4419 144.949 23.7383 145.176 23.9554C145.289 24.0698 145.425 24.1597 145.575 24.2196C145.724 24.2795 145.885 24.3082 146.046 24.3038H146.329L146.343 24.5211H144.471L144.738 23.1285ZM166.87 11.1596L172.854 24.3909H171.129L166.494 13.0963L166.87 11.1596ZM162.666 22.9327C162.583 23.0911 162.545 23.2692 162.557 23.4477C162.568 23.6261 162.629 23.798 162.731 23.9443C162.813 24.0528 162.918 24.1415 163.039 24.2037C163.159 24.2658 163.292 24.2998 163.428 24.303H163.602V24.5211H159.443V24.3038H159.617C159.953 24.2935 160.279 24.1836 160.553 23.9882C160.92 23.7186 161.206 23.3535 161.38 22.9327H162.666ZM166.866 11.1596L167.015 12.6609L162.028 24.4556H160.664L165.821 13.4008L165.941 13.1395C166.021 12.9653 166.115 12.7515 166.224 12.4979C166.333 12.2443 166.431 11.994 166.518 11.7468C166.589 11.5573 166.639 11.3603 166.667 11.1596H166.866ZM169.434 19.4507V20.1035H163.667V19.4507H169.434ZM170.544 22.9327H172.198C172.36 23.3544 172.639 23.7208 173.003 23.9882C173.27 24.1811 173.588 24.2909 173.917 24.3038H174.092V24.5211H169.631V24.3038H169.805C169.937 24.2985 170.066 24.2635 170.183 24.2014C170.3 24.1393 170.401 24.0516 170.479 23.945C170.582 23.7986 170.643 23.6266 170.654 23.448C170.665 23.2694 170.627 23.0911 170.544 22.9327ZM187.649 11.464C188.934 11.4312 190.208 11.6996 191.37 12.2478C192.383 12.7401 193.224 13.5246 193.786 14.5001C194.374 15.5683 194.667 16.7737 194.634 17.9926C194.668 19.2082 194.375 20.4106 193.786 21.4746C193.22 22.4467 192.38 23.2302 191.37 23.7269C190.21 24.282 188.935 24.5542 187.649 24.5211H183.014L182.971 23.8683H187.65C188.386 23.9064 189.122 23.7849 189.807 23.5121C190.493 23.2394 191.111 22.8219 191.62 22.2881C192.635 21.0939 193.153 19.5554 193.067 17.9903C193.153 16.4252 192.635 14.8867 191.62 13.6925C191.111 13.159 190.492 12.7418 189.806 12.4694C189.121 12.1971 188.385 12.076 187.648 12.1145H182.752V11.4618L187.649 11.464ZM183.318 11.464V24.5211H181.904V11.464H183.318ZM181.947 23.1069V24.5211H180.38V24.3038H180.663C180.825 24.3079 180.986 24.2782 181.136 24.2164C181.286 24.1546 181.421 24.0622 181.533 23.945C181.759 23.7228 181.892 23.4233 181.906 23.1069H181.947ZM181.947 12.879H181.904C181.902 12.7174 181.867 12.558 181.801 12.4103C181.736 12.2625 181.641 12.1296 181.523 12.0193C181.285 11.7951 180.968 11.6739 180.642 11.6821H180.38V11.4647H181.947V12.879ZM209.367 11.1596C210.342 11.1526 211.311 11.3184 212.229 11.6493C213.096 11.9606 213.894 12.4374 214.58 13.0532C215.251 13.6573 215.788 14.3947 216.158 15.2184C216.543 16.0921 216.736 17.0385 216.723 17.9933C216.736 18.9481 216.543 19.8945 216.158 20.7682C215.788 21.5919 215.251 22.3294 214.58 22.9335C213.894 23.5492 213.096 24.026 212.229 24.3373C211.311 24.6682 210.342 24.834 209.367 24.827C208.395 24.8346 207.43 24.6687 206.516 24.3373C205.654 24.0238 204.86 23.5469 204.178 22.9327C203.507 22.3286 202.969 21.5911 202.6 20.7674C202.214 19.8938 202.021 18.9474 202.034 17.9926C202.021 17.0377 202.214 16.0914 202.6 15.2177C202.969 14.394 203.507 13.6565 204.178 13.0524C204.86 12.4384 205.654 11.9617 206.517 11.6486C207.43 11.3175 208.395 11.1519 209.367 11.1596ZM209.367 24.1728C210.393 24.1856 211.402 23.9144 212.283 23.389C213.156 22.8637 213.871 22.1116 214.35 21.2126C214.873 20.221 215.135 19.1126 215.112 17.9918C215.138 16.8672 214.876 15.7546 214.35 14.7599C213.868 13.8656 213.154 13.1177 212.283 12.5946C211.402 12.0693 210.393 11.798 209.367 11.8109C208.349 11.8 207.347 12.0713 206.473 12.5946C205.602 13.1177 204.888 13.8656 204.406 14.7599C203.881 15.7546 203.618 16.8672 203.645 17.9918C203.621 19.1126 203.883 20.221 204.406 21.2126C204.886 22.1116 205.6 22.8637 206.473 23.389C207.347 23.9123 208.349 24.1836 209.367 24.1728Z" fill="black"/>
<path d="M62.0386 45.1913H67.4774C68.5535 45.244 69.6127 44.9086 70.4622 44.246C70.8157 43.9433 71.0938 43.5625 71.2747 43.1337C71.4556 42.7049 71.5342 42.24 71.5043 41.7756C71.5192 41.1098 71.3099 40.4585 70.9098 39.9261C70.5098 39.3938 69.9424 39.0115 69.2988 38.8406V38.79C69.8288 38.6594 70.2998 38.3549 70.6364 37.9251C70.9731 37.4954 71.156 36.9652 71.1559 36.4193C71.1746 36.0018 71.0994 35.5855 70.9358 35.201C70.7722 34.8164 70.5244 34.4735 70.2106 34.1975C69.3902 33.5724 68.371 33.2662 67.342 33.3355H62.0386V45.1913ZM64.4428 39.8857H67.1455C67.3874 39.8534 67.6334 39.8736 67.8668 39.9449C68.1003 40.0162 68.3156 40.137 68.4981 40.2991C68.6806 40.4611 68.8261 40.6606 68.9246 40.8839C69.023 41.1072 69.0723 41.3491 69.0688 41.5932C69.0688 42.5549 68.3721 43.2017 67.2117 43.2017H64.4428V39.8857ZM64.4428 38.1119V35.2917H67.0956C68.157 35.2917 68.8031 35.806 68.8031 36.6843C68.8031 37.6125 68.09 38.1104 67.0457 38.1104L64.4428 38.1119ZM81.1888 45.4563C84.6872 45.4563 86.8927 42.8362 86.8927 39.2887C86.8927 35.7412 84.6872 33.104 81.1888 33.104C77.6904 33.104 75.4686 35.7383 75.4686 39.2887C75.4686 42.8392 77.6904 45.4563 81.1888 45.4563ZM81.2052 43.4831C79.0332 43.4831 77.9219 41.6423 77.9219 39.288C77.9219 36.9173 79.0325 35.0765 81.2052 35.0765C83.3779 35.0765 84.4386 36.9173 84.4386 39.288C84.4386 41.6431 83.3779 43.4838 81.2059 43.4838L81.2052 43.4831ZM88.9158 45.1913H91.3527L92.132 42.671H96.4082L97.2054 45.1913H99.7094L95.5314 33.3363H93.0438L88.9158 45.1913ZM93.7539 37.4152C93.9527 36.7855 94.2512 35.5916 94.2512 35.5916H94.2847C94.2847 35.5916 94.5668 36.7826 94.7655 37.4152L95.8269 40.831H92.6933L93.7539 37.4152ZM100.006 35.3594H103.571V45.1913H105.975V35.3594H109.54V33.3363H100.008L100.006 35.3594ZM124.514 45.4399C125.832 45.5103 127.125 45.0574 128.112 44.1798C128.889 43.4464 129.358 42.4442 129.422 41.3773H127.067C126.992 41.9871 126.685 42.5445 126.21 42.9336C125.734 43.3227 125.127 43.5136 124.514 43.4667C122.525 43.4667 121.265 41.7257 121.265 39.3051C121.265 36.9508 122.307 35.1272 124.498 35.1272C125.087 35.0797 125.672 35.2567 126.136 35.6226C126.601 35.9886 126.909 36.5164 127 37.1004H129.388C129.14 34.8458 127.415 33.1048 124.497 33.1048C120.999 33.1048 118.81 35.7911 118.81 39.3058C118.813 42.8697 121.181 45.4399 124.514 45.4399ZM133.567 45.1913H142.338V43.1816H135.971V39.981H141.509V38.0122H135.971V35.3594H142.288V33.3363H133.567V45.1913ZM146.732 45.1913H149.103V39.0729C149.103 38.2437 149.036 37.0006 149.036 37.0006H149.07C149.07 37.0006 149.534 38.0122 149.915 38.6419L153.961 45.1913H156.283V33.3363H153.912V39.5537C153.912 40.3829 153.978 41.6096 153.978 41.6096H153.945C153.945 41.6096 153.499 40.598 153.116 39.9512L149.171 33.3355H146.734L146.732 45.1913ZM160.394 35.3594H163.959V45.1913H166.363V35.3594H169.928V33.3363H160.393L160.394 35.3594ZM174.023 45.1913H182.794V43.1816H176.424V39.981H181.962V38.0122H176.424V35.3594H182.741V33.3363H174.023V45.1913ZM187.188 45.1913H189.592V40.4328H191.534C193.023 40.4328 193.756 41.1622 193.856 42.4559C193.956 43.7324 193.988 45.061 194.287 45.1913H196.594V45.0752C196.18 44.8928 196.246 43.6163 196.08 41.9415C195.931 40.499 195.367 39.8693 194.273 39.5537V39.5046C194.921 39.3718 195.5 39.0075 195.899 38.4796C196.299 37.9516 196.493 37.2963 196.445 36.6359C196.445 34.6627 194.919 33.3363 192.631 33.3363H187.193L187.188 45.1913ZM189.592 35.276H192.212C193.489 35.276 194.102 35.9891 194.102 36.9508C194.102 37.8961 193.455 38.5757 192.145 38.5757H189.592V35.276Z" fill="black"/>
</svg>
