<svg width="179" height="200" viewBox="0 0 179 200" fill="none" xmlns="http://www.w3.org/2000/svg">
<path d="M178.57 115.935L175.274 159.058C170.459 166.994 164.382 174.092 157.282 180.072C149.702 186.406 141.052 191.336 131.738 194.629C120.921 198.367 109.532 200.18 98.0892 199.986C80.3571 200.137 62.8756 195.795 47.2751 187.364C32.6276 179.316 20.5737 167.265 12.5226 152.62C4.19315 137.694 0.0284193 120.068 0.0284193 99.7426C-0.392267 81.5304 3.86367 63.5146 12.3897 47.4159C20.4089 32.7109 32.465 20.6049 47.1368 12.5252C63.2989 3.89254 81.4196 -0.411665 99.7374 0.0310033C112.165 -0.135667 124.541 1.67329 136.401 5.39021C146.431 8.55005 155.996 13.0296 164.845 18.7111L170.33 57.4511H167.857C164.625 42.5059 155.776 29.3732 143.137 20.766C130.265 12.3124 115.134 7.95638 99.7374 8.27185C84.9613 7.90255 70.4003 11.866 57.8499 19.6735C45.8602 27.4766 36.3341 38.5257 30.3813 51.5337C23.5873 66.5762 20.2552 82.9515 20.6305 99.4529C20.2627 116.002 23.594 132.424 30.3813 147.521C36.2813 160.554 45.6979 171.683 57.5735 179.66C69.6424 187.486 83.7052 191.681 98.0892 191.745C110.506 191.864 122.809 189.385 134.211 184.467C145.604 179.353 155.282 171.065 162.089 160.595C169.598 149.511 174.359 134.624 176.372 115.935H178.57Z" fill="#009EDD"/>
<path d="M75.8905 47.1788H75.3189C75.3378 45.5896 75.0251 44.014 74.4008 42.5525C73.7764 41.091 72.8542 39.7757 71.693 38.6907C70.5718 37.5572 69.2342 36.6607 67.7595 36.0547C66.2849 35.4487 64.7034 35.1454 63.1092 35.1631H60.8204L60.6396 33.2597H75.9011L75.8905 47.1788ZM75.8905 152.856V166.78H60.6396L60.831 164.871H63.1198C64.7141 164.89 66.2958 164.587 67.7705 163.981C69.2452 163.375 70.5828 162.478 71.7036 161.344C72.8648 160.259 73.7871 158.943 74.4114 157.482C75.0357 156.02 75.3484 154.445 75.3296 152.856H75.8905ZM87.7174 166.78H75.3189V33.2597H87.7174V166.78ZM98.59 33.2597C106.316 33.0448 114.005 34.4079 121.186 37.2658C126.851 39.5344 131.725 43.4167 135.203 48.4308C138.437 53.3867 140.1 59.2036 139.972 65.1199C140.084 69.9645 139.043 74.7663 136.934 79.1293C135.08 82.9113 132.41 86.2345 129.116 88.8589C126.119 91.2441 122.689 93.0253 119.014 94.1038C125.269 94.9375 131.241 97.2245 136.453 100.782C141.219 104.067 145.088 108.493 147.708 113.656C150.363 119.018 151.704 124.936 151.619 130.919C151.753 137.544 149.964 144.066 146.467 149.695C142.787 155.312 137.51 159.698 131.314 162.287C123.675 165.461 115.453 166.988 107.184 166.769H86.0001C86.126 164.478 86.1898 162.189 86.1915 159.903H106.411C112.207 160.081 117.962 158.871 123.196 156.373C127.698 154.094 131.369 150.456 133.688 145.973C136.22 140.884 137.464 135.251 137.311 129.569C137.572 123.52 136.153 117.517 133.212 112.226C130.665 107.961 127.006 104.469 122.627 102.124C118.238 99.8161 113.503 98.2385 108.607 97.4533C103.847 96.6486 99.0305 96.2335 94.2038 96.2118V94.4945C97.4688 94.4641 100.725 94.1448 103.933 93.5402C107.563 92.8803 111.048 91.5891 114.232 89.7255C117.674 87.6797 120.507 84.7499 122.435 81.2401C124.785 76.6789 125.903 71.5831 125.679 66.457C125.821 61.379 124.741 56.3411 122.531 51.7671C120.491 47.759 117.213 44.5151 113.184 42.516C108.385 40.2751 103.124 39.1968 97.8298 39.3686H80.2847C80.166 38.8171 80.007 38.2751 79.8089 37.747C79.4899 36.7918 79.0131 35.2978 78.3787 33.265L98.59 33.2597Z" fill="#009EDD"/>
<path d="M115.581 105.3L114.3 122.071C112.428 125.156 110.064 127.916 107.303 130.24C104.355 132.704 100.991 134.621 97.3691 135.902C93.162 137.356 88.7327 138.062 84.2821 137.987C77.3864 138.041 70.589 136.35 64.5227 133.071C58.8267 129.942 54.1397 125.255 51.0103 119.559C47.6441 113.239 45.97 106.155 46.1509 98.9967C45.9869 91.9145 47.6407 84.9084 50.9545 78.6471C54.0756 72.9324 58.7647 68.2286 64.4695 65.0896C70.7582 61.7283 77.8102 60.0533 84.9387 60.2275C93.9082 60.1052 102.714 62.6325 110.254 67.4927L112.381 82.5549H111.413C110.154 76.745 106.713 71.6399 101.801 68.2929C96.7944 65.0059 90.9103 63.3118 84.9228 63.4334C79.2617 63.2293 73.6688 64.722 68.8623 67.72C64.0558 70.7179 60.2552 75.0842 57.9486 80.2581C55.3078 86.1101 54.0124 92.4797 54.1578 98.8983C54.0161 105.334 55.3111 111.72 57.9486 117.592C60.2446 122.658 63.9064 126.984 68.5235 130.086C73.2168 133.13 78.6857 134.761 84.2794 134.786C89.1087 134.832 93.8943 133.868 98.3288 131.955C102.763 129.961 106.527 126.731 109.169 122.651C112.403 117.404 114.31 111.449 114.725 105.3H115.581Z" fill="#009EDD"/>
</svg>
