<svg width="16" height="16" viewBox="0 0 16 16" fill="none" xmlns="http://www.w3.org/2000/svg">
<path fill-rule="evenodd" clip-rule="evenodd" d="M10.0714 11.0452C8.83323 12.0344 7.26325 12.5121 5.6839 12.38C4.10456 12.2479 2.63575 11.516 1.57914 10.3348C0.522524 9.15355 -0.0416802 7.61256 0.00240144 6.02831C0.0464831 4.44407 0.695505 2.93683 1.81617 1.81617C2.93683 0.695505 4.44407 0.0464831 6.02831 0.00240144C7.61256 -0.0416802 9.15355 0.522524 10.3348 1.57914C11.516 2.63575 12.2479 4.10456 12.38 5.68391C12.5121 7.26325 12.0344 8.83323 11.0452 10.0714L15.7816 14.807C15.8493 14.87 15.9036 14.9461 15.9413 15.0306C15.9789 15.1151 15.9992 15.2064 16.0008 15.2989C16.0024 15.3914 15.9854 15.4833 15.9508 15.5691C15.9161 15.6548 15.8645 15.7328 15.7991 15.7982C15.7337 15.8636 15.6558 15.9152 15.57 15.9499C15.4842 15.9845 15.3923 16.0015 15.2998 15.9999C15.2073 15.9983 15.116 15.978 15.0315 15.9404C14.947 15.9027 14.871 15.8484 14.8079 15.7807L10.0714 11.0452ZM2.79031 9.61025C2.11607 8.93594 1.65686 8.07689 1.4707 7.14167C1.28455 6.20645 1.37982 5.23703 1.74446 4.35594C2.1091 3.47484 2.72675 2.72162 3.51935 2.19145C4.31195 1.66129 5.24393 1.37799 6.1975 1.37734C7.15106 1.3767 8.08342 1.65875 8.87674 2.18785C9.67005 2.71695 10.2887 3.46934 10.6545 4.34994C11.0204 5.23055 11.1169 6.19983 10.932 7.1353C10.7471 8.07077 10.2891 8.93044 9.61576 9.60566L9.61117 9.61025L9.60657 9.61392C8.7018 10.5166 7.47574 11.0232 6.19768 11.0225C4.91963 11.0219 3.69411 10.5139 2.79031 9.61025Z" fill="black"/>
</svg>
